<svg preserveAspectRatio="none" overflow="visible" style="display: block;" width="40" height="40" viewBox="0 0 40 40" fill="none" xmlns="http://www.w3.org/2000/svg">
<g id="user-search">
<path id="Vector" d="M20 20C24.6024 20 28.3333 16.269 28.3333 11.6667C28.3333 7.06429 24.6024 3.33333 20 3.33333C15.3976 3.33333 11.6667 7.06429 11.6667 11.6667C11.6667 16.269 15.3976 20 20 20Z" stroke="#0D6AF6" stroke-width="2" stroke-linecap="round" stroke-linejoin="round"/>
<path id="Vector_2" d="M5.68329 36.6667C5.68329 30.2167 12.1 25 20 25" stroke="#0D6AF6" stroke-width="2" stroke-linecap="round" stroke-linejoin="round"/>
<g id="Group">
<path id="Vector_3" d="M30.3334 35.6667C33.2789 35.6667 35.6667 33.2789 35.6667 30.3334C35.6667 27.3878 33.2789 25 30.3334 25C27.3878 25 25 27.3878 25 30.3334C25 33.2789 27.3878 35.6667 30.3334 35.6667Z" stroke="#0D6AF6" stroke-width="2" stroke-linecap="round" stroke-linejoin="round"/>
<path id="Vector_4" d="M36.6667 36.6667L35 35" stroke="#0D6AF6" stroke-width="2" stroke-linecap="round" stroke-linejoin="round"/>
</g>
<path id="Vector_5" opacity="0" d="M39.5 0.5V39.5H0.5V0.5H39.5Z" stroke="#0D6AF6"/>
</g>
</svg>
